<?xml version="1.0" standalone="no"?>
<!DOCTYPE svg PUBLIC "-//W3C//DTD SVG 20010904//EN"
 "http://www.w3.org/TR/2001/REC-SVG-20010904/DTD/svg10.dtd">
<svg version="1.0" xmlns="http://www.w3.org/2000/svg"
 width="1036.000000pt" height="768.000000pt" viewBox="0 0 1036.000000 768.000000"
 preserveAspectRatio="xMidYMid meet">

<g transform="translate(0.000000,768.000000) scale(0.100000,-0.100000)"
fill="#FF3131" stroke="none">
<path d="M4922 7411 c-313 -83 -357 -100 -488 -200 -164 -124 -345 -338 -546
-646 -114 -173 -191 -304 -468 -790 -314 -553 -383 -668 -446 -751 -30 -39
-109 -165 -175 -280 -67 -115 -154 -256 -193 -314 -38 -58 -109 -181 -156
-275 -48 -93 -134 -240 -191 -325 -119 -176 -445 -716 -634 -1050 -70 -124
-165 -286 -211 -362 -141 -232 -194 -355 -243 -568 -45 -191 -48 -324 -15
-524 51 -300 215 -601 420 -767 252 -205 525 -321 823 -351 105 -10 2487 -21
4596 -21 878 0 1193 31 1405 138 82 41 232 142 329 220 107 86 262 289 321
420 75 164 150 456 150 578 -1 152 -43 364 -104 525 -85 221 -181 398 -490
901 -119 192 -269 445 -334 563 -65 117 -149 263 -187 323 -37 61 -134 225
-215 365 -81 140 -194 332 -250 425 -57 94 -204 348 -328 565 -607 1067 -650
1141 -855 1465 -195 308 -288 420 -434 524 -48 35 -122 80 -163 101 -162 82
-403 137 -635 146 -127 5 -133 4 -283 -35z m521 -1745 c41 -20 71 -44 102 -83
77 -99 80 -129 45 -543 -38 -449 -110 -1416 -119 -1605 -6 -106 -17 -211 -25
-237 -38 -126 -162 -221 -291 -222 -155 -1 -286 99 -314 238 -17 81 -30 251
-41 521 -6 138 -24 457 -40 710 -46 704 -59 971 -49 1016 5 23 18 58 29 78 24
48 122 138 163 150 18 6 133 9 257 8 l225 -2 58 -29z m-133 -2921 c128 -51
223 -152 261 -277 66 -217 -60 -450 -279 -518 -251 -78 -506 77 -553 334 -37
202 100 411 310 472 61 18 203 12 261 -11z"/>
</g>
</svg>
