<?xml version="1.0" standalone="no"?>
<!DOCTYPE svg PUBLIC "-//W3C//DTD SVG 20010904//EN"
 "http://www.w3.org/TR/2001/REC-SVG-20010904/DTD/svg10.dtd">
<svg version="1.0" xmlns="http://www.w3.org/2000/svg"
 width="1000.000000pt" height="1000.000000pt" viewBox="0 0 1000.000000 1000.000000"
 preserveAspectRatio="xMidYMid meet">

<g transform="translate(0.000000,1000.000000) scale(0.100000,-0.100000)"
fill="#000000" stroke="none">
<path d="M4563 8819 c-220 -26 -435 -91 -643 -196 -568 -286 -956 -829 -1044
-1462 -21 -144 -21 -398 0 -542 122 -876 809 -1553 1684 -1659 124 -15 353
-12 481 6 584 81 1095 422 1395 931 372 630 355 1439 -42 2051 -362 558 -972
887 -1631 881 -70 -1 -160 -5 -200 -10z"/>
<path d="M6830 4921 l-55 -6 -26 -188 c-15 -104 -29 -191 -32 -193 -3 -3 -54
-22 -113 -43 -124 -43 -174 -67 -257 -123 l-58 -39 -47 29 c-26 16 -122 77
-214 135 l-167 106 -168 -175 c-92 -96 -169 -179 -171 -184 -2 -5 51 -92 117
-193 67 -101 121 -188 121 -194 0 -6 -29 -85 -64 -175 -35 -89 -72 -188 -81
-219 l-18 -56 -111 -7 c-61 -3 -157 -11 -213 -17 l-101 -12 -6 -101 c-3 -55
-8 -178 -12 -273 l-6 -172 34 -5 c18 -3 119 -13 223 -22 105 -9 190 -17 191
-17 0 -1 15 -45 34 -97 38 -111 74 -184 140 -291 l48 -77 -119 -186 c-65 -102
-119 -191 -119 -198 0 -7 71 -85 159 -172 l159 -158 170 121 c94 66 174 121
178 121 4 0 42 -20 86 -45 81 -47 197 -89 332 -121 43 -10 80 -23 82 -29 2 -5
15 -97 28 -204 14 -106 27 -195 28 -197 7 -6 473 -21 479 -15 4 3 19 96 34
206 16 110 31 203 35 208 3 4 52 19 108 32 115 28 151 44 270 121 45 30 88 54
94 54 6 0 83 -53 171 -117 89 -65 168 -123 177 -130 14 -10 42 14 189 161
l172 172 -129 181 -130 180 55 79 c76 112 100 167 121 285 11 64 23 105 32
110 8 4 107 22 219 38 113 17 206 33 208 35 2 2 0 111 -4 242 l-8 239 -205 29
c-113 16 -206 30 -208 31 -1 1 -14 49 -28 105 -29 120 -65 202 -140 312 l-54
79 145 151 c80 83 145 155 145 161 0 31 -159 200 -315 334 l-61 51 -64 -46
c-36 -25 -109 -79 -162 -119 -54 -40 -104 -73 -112 -73 -7 0 -65 24 -127 53
-63 30 -164 70 -225 91 l-112 37 -21 117 c-12 64 -29 156 -38 205 l-17 87
-205 -2 c-113 -1 -231 -4 -261 -7z m405 -990 c254 -68 471 -245 584 -476 76
-156 86 -202 86 -395 -1 -153 -3 -171 -29 -250 -134 -405 -504 -658 -931 -637
-635 33 -1043 663 -800 1238 116 276 382 483 692 539 85 15 309 5 398 -19z"/>
<path d="M3315 4684 c-250 -139 -457 -262 -581 -345 -279 -186 -645 -518 -815
-739 -374 -484 -694 -1202 -794 -1784 -20 -119 -19 -217 4 -308 35 -134 85
-210 162 -242 49 -20 375 -63 579 -76 206 -13 3236 -24 3523 -13 l208 8 -143
130 c-160 146 -306 319 -447 530 -188 283 -254 464 -308 845 -13 94 -17 195
-18 410 0 484 26 586 280 1108 104 211 121 252 105 252 -11 0 -68 -7 -127 -16
-85 -13 -157 -15 -338 -11 -240 5 -349 18 -480 59 -77 25 -346 154 -499 242
-54 31 -104 56 -110 56 -6 0 -96 -48 -201 -106z"/>
</g>
</svg>
