<?xml version="1.0" standalone="no"?>
<!DOCTYPE svg PUBLIC "-//W3C//DTD SVG 20010904//EN"
 "http://www.w3.org/TR/2001/REC-SVG-20010904/DTD/svg10.dtd">
<svg version="1.0" xmlns="http://www.w3.org/2000/svg"
 width="512.000000pt" height="512.000000pt" viewBox="0 0 512.000000 512.000000"
 preserveAspectRatio="xMidYMid meet">

<g transform="translate(0.000000,512.000000) scale(0.100000,-0.100000)"
fill="#e9ece7" stroke="none">
<path d="M366 4464 c-255 -62 -415 -322 -351 -569 24 -89 72 -170 137 -231 64
-58 101 -80 188 -110 53 -18 124 -19 2225 -19 l2170 0 59 23 c88 33 135 64
193 124 58 62 96 132 118 215 65 248 -98 507 -356 568 -94 22 -4291 21 -4383
-1z m4350 -303 c91 -42 127 -143 82 -231 -31 -60 -74 -87 -151 -95 -34 -3
-998 -5 -2142 -3 -2078 3 -2080 3 -2115 24 -124 73 -116 246 15 305 38 18 124
19 2155 19 2044 0 2116 -1 2156 -19z"/>
<path d="M353 3015 c-131 -36 -244 -127 -302 -247 -132 -269 15 -587 306 -663
50 -13 333 -15 2203 -15 2350 0 2199 -4 2314 58 74 39 157 126 195 203 132
269 -15 588 -306 664 -84 22 -4329 21 -4410 0z m4377 -308 c51 -27 90 -90 90
-147 0 -57 -39 -120 -90 -147 l-43 -23 -2127 0 -2127 0 -43 23 c-51 27 -90 90
-90 147 0 57 39 120 90 147 l43 23 2127 0 2127 0 43 -23z"/>
<path d="M404 1579 c-181 -23 -340 -169 -389 -354 -65 -252 102 -515 362 -570
102 -22 4264 -22 4366 0 260 55 427 318 362 570 -50 190 -207 330 -398 355
-88 11 -4215 11 -4303 -1z m4280 -299 c54 -12 87 -38 114 -91 46 -87 9 -189
-82 -230 -40 -18 -112 -19 -2156 -19 -2044 0 -2116 1 -2156 19 -91 41 -128
143 -82 230 26 51 61 79 109 91 48 11 4205 12 4253 0z"/>
</g>
</svg>
