<?xml version="1.0" standalone="no"?>
<!DOCTYPE svg PUBLIC "-//W3C//DTD SVG 20010904//EN"
 "http://www.w3.org/TR/2001/REC-SVG-20010904/DTD/svg10.dtd">
<svg version="1.0" xmlns="http://www.w3.org/2000/svg"
 width="1000.000000pt" height="1000.000000pt" viewBox="0 0 1000.000000 1000.000000"
 preserveAspectRatio="xMidYMid meet">

<g transform="translate(0.000000,1000.000000) scale(0.100000,-0.100000)"
fill="#000000" stroke="none">
<path d="M4550 8819 c-194 -25 -423 -92 -590 -172 -589 -283 -989 -829 -1085
-1482 -21 -141 -21 -404 -1 -549 89 -624 465 -1161 1018 -1450 282 -148 562
-216 886 -216 325 0 592 63 873 206 203 104 344 209 515 387 722 747 721 1943
-1 2696 -311 324 -713 525 -1165 581 -97 12 -355 11 -450 -1z"/>
<path d="M6165 4784 c-91 -64 -329 -202 -418 -244 -107 -50 -225 -81 -418
-109 -268 -39 -432 -45 -654 -27 -456 38 -576 74 -978 294 -93 51 -174 92
-180 92 -28 0 -608 -334 -783 -451 -278 -186 -645 -518 -815 -739 -374 -484
-694 -1202 -794 -1784 -20 -119 -19 -217 4 -308 35 -134 85 -210 162 -242 52
-22 372 -63 591 -76 317 -19 3224 -18 4598 2 1221 18 1291 21 1542 67 162 29
205 61 248 185 52 153 50 302 -10 590 -112 539 -379 1189 -651 1586 -171 250
-489 579 -742 768 -124 92 -638 434 -650 431 -1 0 -24 -16 -52 -35z"/>
</g>
</svg>
